PathFileType	4	(X/Y/Z)	C:\Git\research_data\torsion_deformities_healthy_kinematics\simulations\P03\pre\Static01\marker_experimental_HJC.trc
DataRate	CameraRate	NumFrames	NumMarkers	Units	OrigDataRate	OrigDataStartFrame	OrigNumFrames
150	150	8	38	mm	150	57	150
Frame#	Time	C7			T10			CLAV			STRN			RBAK			SACR			LASI			RASI			LT1			LT2			LT3			LS1			LS2			LS3			LHEE			LTOE			RT1			RT2			RT3			RS1			RS2			RS3			RHEE			RTOE			LKNE			LKNM			LANK			LANM			RKNM			RKNE			RANM			RANK			LKJC			RKJC			LAJC			RAJC			LHJC			RHJC		
		X1	Y1	Z1	X2	Y2	Z2	X3	Y3	Z3	X4	Y4	Z4	X5	Y5	Z5	X6	Y6	Z6	X7	Y7	Z7	X8	Y8	Z8	X9	Y9	Z9	X10	Y10	Z10	X11	Y11	Z11	X12	Y12	Z12	X13	Y13	Z13	X14	Y14	Z14	X15	Y15	Z15	X16	Y16	Z16	X17	Y17	Z17	X18	Y18	Z18	X19	Y19	Z19	X20	Y20	Z20	X21	Y21	Z21	X22	Y22	Z22	X23	Y23	Z23	X24	Y24	Z24	X25	Y25	Z25	X26	Y26	Z26	X27	Y27	Z27	X28	Y28	Z28	X29	Y29	Z29	X30	Y30	Z30	X31	Y31	Z31	X32	Y32	Z32	X33	Y33	Z33	X34	Y34	Z34	X35	Y35	Z35	X36	Y36	Z36	X37	Y37	Z37	X38	Y38	Z38	

57	0.373333	-964.769897	1274.638306	-444.131409	-914.511230	1095.695801	-446.218811	-1095.463501	1212.424072	-428.329224	-1127.656006	1159.267334	-423.900024	-933.588379	1178.167847	-543.104919	-915.246460	875.592712	-431.177551	-1070.887207	870.840210	-279.122406	-1123.509399	878.936218	-521.998047	-1127.023315	586.338196	-244.145157	-1078.226929	474.575409	-232.230713	-1202.057861	531.941833	-277.160767	-1032.878906	217.242310	-282.819366	-950.187012	148.258560	-342.180115	-1062.239746	131.957413	-254.503387	-973.566345	41.721222	-367.721924	-1083.313965	41.390553	-262.392273	-1132.126831	607.972290	-593.190796	-1055.389282	509.963165	-587.091248	-1197.232422	534.822388	-583.276978	-1088.603760	266.781464	-587.615356	-981.373474	216.833664	-562.664429	-1116.539062	176.588623	-582.652588	-981.798767	44.916668	-500.273315	-1123.364746	41.724312	-570.605103	-1147.392456	433.249603	-268.697723	-1163.158813	421.790680	-368.180328	-994.208252	49.618946	-304.691528	-1044.770142	47.217251	-356.915497	-1164.105713	424.723022	-466.668274	-1164.176270	440.175690	-569.248779	-1062.639404	52.914444	-490.789154	-1018.999268	47.562504	-552.329773	-1155.275635	427.520142	-318.439026	-1164.140991	432.449371	-517.958496	-1019.489197	48.418098	-330.803528	-1040.819336	50.238476	-521.559448	-1025.475967	786.821773	-327.561631	-1063.296525	792.640526	-502.120916	
58	0.380000	-964.868286	1274.654541	-444.194427	-914.520264	1095.732422	-446.256348	-1095.531372	1212.379150	-428.393066	-1127.688232	1159.209839	-423.965912	-933.617004	1178.185303	-543.148071	-915.199951	875.588928	-431.209869	-1070.846680	870.858337	-279.158356	-1123.447144	878.918274	-522.042908	-1126.985229	586.347778	-244.169525	-1078.194702	474.585602	-232.250214	-1202.024414	531.951599	-277.181885	-1032.861450	217.254272	-282.838562	-950.181641	148.260803	-342.196503	-1062.237671	131.973709	-254.511063	-973.577454	41.721916	-367.729187	-1083.315186	41.389606	-262.400482	-1132.119995	607.959473	-593.188049	-1055.390259	509.943237	-587.095886	-1197.230957	534.821289	-583.246460	-1088.611938	266.777039	-587.610657	-981.387146	216.826538	-562.676819	-1116.563599	176.584946	-582.629211	-981.794006	44.918713	-500.275635	-1123.375488	41.726753	-570.593140	-1147.449951	433.291687	-268.658783	-1163.143066	421.805481	-368.206329	-994.203674	49.621677	-304.691711	-1044.771484	47.217972	-356.920624	-1164.081787	424.729187	-466.646912	-1164.191406	440.166870	-569.224487	-1062.640869	52.912872	-490.779846	-1018.998291	47.563389	-552.326721	-1155.296509	427.548584	-318.432556	-1164.136597	432.448029	-517.935669	-1019.487610	48.419827	-330.806152	-1040.819580	50.238129	-521.553284	-1025.432362	786.831932	-327.581128	-1063.237267	792.624754	-502.146649	
59	0.386667	-964.969543	1274.668823	-444.260193	-914.531006	1095.768677	-446.291260	-1095.593750	1212.336060	-428.455688	-1127.720337	1159.144897	-424.031708	-933.640137	1178.201782	-543.189270	-915.154724	875.577576	-431.242432	-1070.802734	870.871582	-279.195679	-1123.384033	878.893494	-522.089478	-1126.948730	586.355286	-244.195572	-1078.165771	474.591492	-232.269669	-1201.993896	531.960449	-277.206604	-1032.845947	217.263519	-282.854126	-950.177185	148.261673	-342.210632	-1062.234009	131.985321	-254.521332	-973.590210	41.720013	-367.738251	-1083.314697	41.384270	-262.409943	-1132.108521	607.945679	-593.184509	-1055.392944	509.920074	-587.097290	-1197.225464	534.815918	-583.223389	-1088.618286	266.770782	-587.606873	-981.396362	216.822495	-562.688599	-1116.590698	176.580139	-582.606628	-981.788391	44.920624	-500.278229	-1123.383423	41.728828	-570.579773	-1147.529419	433.336090	-268.609436	-1163.090088	421.807800	-368.212830	-994.198303	49.624256	-304.690399	-1044.771362	47.218502	-356.924652	-1164.054810	424.729492	-466.625275	-1164.206177	440.155823	-569.204468	-1062.641724	52.909542	-490.771027	-1018.997070	47.562534	-552.324524	-1155.309814	427.571960	-318.411133	-1164.130493	432.442657	-517.914917	-1019.484863	48.421379	-330.807526	-1040.819458	50.236038	-521.547791	-1025.387307	786.836168	-327.601600	-1063.178391	792.601654	-502.173552	
60	0.393333	-965.067932	1274.682373	-444.326569	-914.542236	1095.804688	-446.323273	-1095.654541	1212.296387	-428.519562	-1127.751831	1159.074341	-424.100922	-933.658691	1178.221802	-543.227783	-915.109253	875.559082	-431.274384	-1070.755493	870.877930	-279.235168	-1123.320557	878.862366	-522.137207	-1126.914062	586.361145	-244.223648	-1078.136353	474.592896	-232.290955	-1201.965088	531.969910	-277.234924	-1032.830444	217.269608	-282.867462	-950.171936	148.261063	-342.223846	-1062.227173	131.991959	-254.533890	-973.601379	41.715401	-367.748657	-1083.312988	41.378544	-262.418182	-1132.091064	607.931152	-593.182312	-1055.396484	509.893005	-587.096191	-1197.215576	534.805908	-583.210571	-1088.623657	266.762848	-587.603699	-981.396545	216.824310	-562.694946	-1116.617188	176.573730	-582.585754	-981.782166	44.922112	-500.280975	-1123.387939	41.730003	-570.566528	-1147.562622	433.359894	-268.591095	-1162.999268	421.795563	-368.195770	-994.194275	49.625717	-304.690826	-1044.769165	47.219212	-356.927612	-1164.023315	424.723206	-466.607178	-1164.219360	440.143982	-569.191223	-1062.641357	52.904255	-490.763794	-1018.995544	47.560204	-552.323059	-1155.281006	427.577728	-318.393433	-1164.121338	432.433594	-517.899231	-1019.481750	48.422462	-330.809204	-1040.818481	50.232227	-521.543457	-1025.340202	786.833588	-327.624795	-1063.119575	792.572133	-502.202474	
61	0.400000	-965.159485	1274.696167	-444.390656	-914.552246	1095.839966	-446.352753	-1095.718018	1212.259766	-428.585022	-1127.783447	1159.001221	-424.174744	-933.675598	1178.248657	-543.263977	-915.063171	875.534912	-431.304230	-1070.707153	870.877441	-279.275787	-1123.256470	878.825928	-522.185059	-1126.882080	586.366272	-244.252701	-1078.104370	474.591309	-232.313232	-1201.936768	531.980225	-277.265259	-1032.813110	217.272934	-282.880035	-950.164551	148.259247	-342.237000	-1062.216431	131.994034	-254.547943	-973.608215	41.708569	-367.759521	-1083.310791	41.375618	-262.423035	-1132.067993	607.915833	-593.183228	-1055.398315	509.862640	-587.093628	-1197.203247	534.793091	-583.207214	-1088.628418	266.753723	-587.600952	-981.385010	216.833191	-562.691711	-1116.640259	176.565659	-582.567200	-981.775452	44.922993	-500.283691	-1123.388306	41.729942	-570.554688	-1147.494385	433.337616	-268.631775	-1162.894775	421.775421	-368.167786	-994.192444	49.625751	-304.695343	-1044.764771	47.220734	-356.929688	-1163.989990	424.712097	-466.595764	-1164.230347	440.132935	-569.184631	-1062.639648	52.897198	-490.758759	-1018.993896	47.556984	-552.321960	-1155.194580	427.556519	-318.399780	-1164.110229	432.422516	-517.890198	-1019.478577	48.423241	-330.812500	-1040.816772	50.227089	-521.540344	-1025.292126	786.824815	-327.649627	-1063.060150	792.537518	-502.232355	
62	0.406667	-965.242981	1274.710815	-444.449768	-914.559570	1095.874390	-446.380646	-1095.786499	1212.225708	-428.651276	-1127.818359	1158.929810	-424.251923	-933.694214	1178.281250	-543.299927	-915.017395	875.507935	-431.330414	-1070.659668	870.871948	-279.315491	-1123.191772	878.785645	-522.231689	-1126.852905	586.371582	-244.280563	-1078.071289	474.589508	-232.333481	-1201.907837	531.990906	-277.294312	-1032.792969	217.274887	-282.892792	-950.154419	148.257156	-342.250763	-1062.201782	131.992935	-254.562515	-973.609985	41.700096	-367.770355	-1083.308838	41.375790	-262.423767	-1132.040039	607.899414	-593.187805	-1055.395386	509.830017	-587.090576	-1197.190796	534.779907	-583.211426	-1088.632812	266.743988	-587.598572	-981.363953	216.847382	-562.678650	-1116.657715	176.556442	-582.551697	-981.768799	44.923210	-500.286133	-1123.385132	41.728622	-570.545166	-1147.324585	433.262787	-268.723267	-1162.811523	421.758545	-368.152069	-994.191223	49.625465	-304.704376	-1044.758667	47.223728	-356.930969	-1163.962402	424.699890	-466.591003	-1164.237915	440.123871	-569.182617	-1062.636719	52.889130	-490.756042	-1018.992371	47.553555	-552.320679	-1155.067993	427.510681	-318.437653	-1164.100220	432.411865	-517.886841	-1019.474976	48.424599	-330.817657	-1040.814575	50.221344	-521.538391	-1025.244071	786.811890	-327.673703	-1062.999699	792.499584	-502.261295	
63	0.413333	-965.320618	1274.725464	-444.503235	-914.564209	1095.907471	-446.408081	-1095.859619	1212.192749	-428.717194	-1127.859375	1158.863403	-424.329742	-933.717285	1178.315552	-543.338013	-914.972900	875.482422	-431.351440	-1070.615967	870.864014	-279.352753	-1123.125854	878.743347	-522.275391	-1126.825684	586.377991	-244.304962	-1078.039917	474.589783	-232.348480	-1201.878540	532.001648	-277.318420	-1032.769653	217.277542	-282.906158	-950.141235	148.256088	-342.265991	-1062.182861	131.991364	-254.576538	-973.607544	41.690777	-367.781219	-1083.306885	41.377918	-262.420654	-1132.007690	607.881775	-593.195923	-1055.386353	509.796143	-587.087524	-1197.177490	534.767883	-583.220886	-1088.637207	266.734314	-587.596558	-981.341248	216.861969	-562.660706	-1116.668335	176.547028	-582.539856	-981.762451	44.922813	-500.288086	-1123.378906	41.726395	-570.538086	-1147.127441	433.170227	-268.817963	-1162.763062	421.751251	-368.157501	-994.188293	49.626736	-304.717010	-1044.751221	47.228722	-356.931610	-1163.947144	424.690643	-466.589783	-1164.241333	440.117249	-569.182800	-1062.633179	52.881199	-490.755402	-1018.991333	47.550522	-552.318970	-1154.945312	427.460724	-318.487732	-1164.094238	432.403961	-517.886292	-1019.469727	48.427727	-330.824310	-1040.812256	50.215858	-521.537170	-1025.197274	786.798130	-327.694658	-1062.936928	792.461126	-502.286849	
64	0.420000	-965.395935	1274.738892	-444.552673	-914.567993	1095.939087	-446.435730	-1095.936035	1212.158813	-428.782288	-1127.907471	1158.803467	-424.405396	-933.746155	1178.347656	-543.378906	-914.929749	875.462524	-431.365997	-1070.578003	870.856262	-279.386780	-1123.058228	878.700684	-522.314819	-1126.798706	586.385925	-244.324020	-1078.012573	474.592651	-232.357025	-1201.850830	532.012451	-277.334442	-1032.743286	217.282944	-282.920166	-950.124939	148.257172	-342.283875	-1062.159546	131.992783	-254.588791	-973.602783	41.681900	-367.792664	-1083.303589	41.381157	-262.414459	-1131.972168	607.863159	-593.207092	-1055.371216	509.761688	-587.084351	-1197.161011	534.757935	-583.233704	-1088.642090	266.725159	-587.595276	-981.325684	216.871750	-562.644958	-1116.671997	176.538040	-582.531921	-981.756958	44.921936	-500.289276	-1123.370850	41.723953	-570.533264	-1147.004272	433.115997	-268.860901	-1162.739014	421.753937	-368.173737	-994.182129	49.630844	-304.731354	-1044.743774	47.236031	-356.931946	-1163.946411	424.685364	-466.588806	-1164.240845	440.112823	-569.184204	-1062.630005	52.874561	-490.756439	-1018.991028	47.548443	-552.316833	-1154.871704	427.434967	-318.517334	-1164.093628	432.399109	-517.886536	-1019.462952	48.433437	-330.831635	-1040.810425	50.211502	-521.536621	-1025.152114	786.786910	-327.710985	-1062.870475	792.424819	-502.307178	
